<?xml version="1.0" encoding="UTF-8" standalone="no"?>
<!DOCTYPE svg PUBLIC "-//W3C//DTD SVG 1.1//EN"
 "http://www.w3.org/Graphics/SVG/1.1/DTD/svg11.dtd">
<!-- Generated by graphviz version 2.40.1 (20161225.0304)
 -->
<!-- Title: AVLTree Pages: 1 -->
<svg width="278pt" height="260pt"
 viewBox="0.00 0.00 278.00 260.00" xmlns="http://www.w3.org/2000/svg" xmlns:xlink="http://www.w3.org/1999/xlink">
<g id="graph0" class="graph" transform="scale(1 1) rotate(0) translate(4 256)">
<title>AVLTree</title>
<polygon fill="#ffffff" stroke="transparent" points="-4,4 -4,-256 274,-256 274,4 -4,4"/>
<!-- 43 -->
<g id="node1" class="node">
<title>43</title>
<ellipse fill="none" stroke="#000000" cx="135" cy="-234" rx="27" ry="18"/>
<text text-anchor="middle" x="135" y="-229.8" font-family="Times,serif" font-size="14.00" fill="#000000">43</text>
</g>
<!-- 20 -->
<g id="node2" class="node">
<title>20</title>
<ellipse fill="none" stroke="#000000" cx="99" cy="-162" rx="27" ry="18"/>
<text text-anchor="middle" x="99" y="-157.8" font-family="Times,serif" font-size="14.00" fill="#000000">20</text>
</g>
<!-- 43&#45;&#45;20 -->
<g id="edge1" class="edge">
<title>43&#45;&#45;20</title>
<path fill="none" stroke="#000000" d="M126.2854,-216.5708C120.6253,-205.2506 113.2784,-190.5568 107.6343,-179.2687"/>
</g>
<!-- 62 -->
<g id="node7" class="node">
<title>62</title>
<ellipse fill="none" stroke="#000000" cx="171" cy="-162" rx="27" ry="18"/>
<text text-anchor="middle" x="171" y="-157.8" font-family="Times,serif" font-size="14.00" fill="#000000">62</text>
</g>
<!-- 43&#45;&#45;62 -->
<g id="edge6" class="edge">
<title>43&#45;&#45;62</title>
<path fill="none" stroke="#000000" d="M143.7146,-216.5708C149.3747,-205.2506 156.7216,-190.5568 162.3657,-179.2687"/>
</g>
<!-- 8 -->
<g id="node3" class="node">
<title>8</title>
<ellipse fill="none" stroke="#000000" cx="27" cy="-90" rx="27" ry="18"/>
<text text-anchor="middle" x="27" y="-85.8" font-family="Times,serif" font-size="14.00" fill="#000000">8</text>
</g>
<!-- 20&#45;&#45;8 -->
<g id="edge2" class="edge">
<title>20&#45;&#45;8</title>
<path fill="none" stroke="#000000" d="M83.7307,-146.7307C71.512,-134.512 54.4602,-117.4602 42.2473,-105.2473"/>
</g>
<!-- 21 -->
<g id="node6" class="node">
<title>21</title>
<ellipse fill="none" stroke="#000000" cx="99" cy="-90" rx="27" ry="18"/>
<text text-anchor="middle" x="99" y="-85.8" font-family="Times,serif" font-size="14.00" fill="#000000">21</text>
</g>
<!-- 20&#45;&#45;21 -->
<g id="edge5" class="edge">
<title>20&#45;&#45;21</title>
<path fill="none" stroke="#000000" d="M99,-143.8314C99,-133 99,-119.2876 99,-108.4133"/>
</g>
<!-- 6 -->
<g id="node4" class="node">
<title>6</title>
<ellipse fill="none" stroke="#000000" cx="27" cy="-18" rx="27" ry="18"/>
<text text-anchor="middle" x="27" y="-13.8" font-family="Times,serif" font-size="14.00" fill="#000000">6</text>
</g>
<!-- 8&#45;&#45;6 -->
<g id="edge3" class="edge">
<title>8&#45;&#45;6</title>
<path fill="none" stroke="#000000" d="M27,-71.8314C27,-61 27,-47.2876 27,-36.4133"/>
</g>
<!-- 9 -->
<g id="node5" class="node">
<title>9</title>
<ellipse fill="none" stroke="#000000" cx="99" cy="-18" rx="27" ry="18"/>
<text text-anchor="middle" x="99" y="-13.8" font-family="Times,serif" font-size="14.00" fill="#000000">9</text>
</g>
<!-- 8&#45;&#45;9 -->
<g id="edge4" class="edge">
<title>8&#45;&#45;9</title>
<path fill="none" stroke="#000000" d="M42.2693,-74.7307C54.488,-62.512 71.5398,-45.4602 83.7527,-33.2473"/>
</g>
<!-- 50 -->
<g id="node8" class="node">
<title>50</title>
<ellipse fill="none" stroke="#000000" cx="171" cy="-90" rx="27" ry="18"/>
<text text-anchor="middle" x="171" y="-85.8" font-family="Times,serif" font-size="14.00" fill="#000000">50</text>
</g>
<!-- 62&#45;&#45;50 -->
<g id="edge7" class="edge">
<title>62&#45;&#45;50</title>
<path fill="none" stroke="#000000" d="M171,-143.8314C171,-133 171,-119.2876 171,-108.4133"/>
</g>
<!-- 63 -->
<g id="node10" class="node">
<title>63</title>
<ellipse fill="none" stroke="#000000" cx="243" cy="-90" rx="27" ry="18"/>
<text text-anchor="middle" x="243" y="-85.8" font-family="Times,serif" font-size="14.00" fill="#000000">63</text>
</g>
<!-- 62&#45;&#45;63 -->
<g id="edge9" class="edge">
<title>62&#45;&#45;63</title>
<path fill="none" stroke="#000000" d="M186.2693,-146.7307C198.488,-134.512 215.5398,-117.4602 227.7527,-105.2473"/>
</g>
<!-- 51 -->
<g id="node9" class="node">
<title>51</title>
<ellipse fill="none" stroke="#000000" cx="171" cy="-18" rx="27" ry="18"/>
<text text-anchor="middle" x="171" y="-13.8" font-family="Times,serif" font-size="14.00" fill="#000000">51</text>
</g>
<!-- 50&#45;&#45;51 -->
<g id="edge8" class="edge">
<title>50&#45;&#45;51</title>
<path fill="none" stroke="#000000" d="M171,-71.8314C171,-61 171,-47.2876 171,-36.4133"/>
</g>
</g>
</svg>
