<?xml version="1.0" encoding="UTF-8" standalone="no"?>
<!DOCTYPE svg PUBLIC "-//W3C//DTD SVG 1.1//EN"
 "http://www.w3.org/Graphics/SVG/1.1/DTD/svg11.dtd">
<!-- Generated by graphviz version 2.40.1 (20161225.0304)
 -->
<!-- Title: btree Pages: 1 -->
<svg width="350pt" height="332pt"
 viewBox="0.00 0.00 350.00 332.00" xmlns="http://www.w3.org/2000/svg" xmlns:xlink="http://www.w3.org/1999/xlink">
<g id="graph0" class="graph" transform="scale(1 1) rotate(0) translate(4 328)">
<title>btree</title>
<polygon fill="#ffffff" stroke="transparent" points="-4,4 -4,-328 346,-328 346,4 -4,4"/>
<!-- 41 -->
<g id="node1" class="node">
<title>41</title>
<ellipse fill="none" stroke="#000000" cx="135" cy="-306" rx="27" ry="18"/>
<text text-anchor="middle" x="135" y="-301.8" font-family="Times,serif" font-size="14.00" fill="#000000">41</text>
</g>
<!-- 20 -->
<g id="node2" class="node">
<title>20</title>
<ellipse fill="none" stroke="#000000" cx="99" cy="-234" rx="27" ry="18"/>
<text text-anchor="middle" x="99" y="-229.8" font-family="Times,serif" font-size="14.00" fill="#000000">20</text>
</g>
<!-- 41&#45;&#45;20 -->
<g id="edge1" class="edge">
<title>41&#45;&#45;20</title>
<path fill="none" stroke="#000000" d="M126.2854,-288.5708C120.6253,-277.2506 113.2784,-262.5568 107.6343,-251.2687"/>
</g>
<!-- 65 -->
<g id="node6" class="node">
<title>65</title>
<ellipse fill="none" stroke="#000000" cx="171" cy="-234" rx="27" ry="18"/>
<text text-anchor="middle" x="171" y="-229.8" font-family="Times,serif" font-size="14.00" fill="#000000">65</text>
</g>
<!-- 41&#45;&#45;65 -->
<g id="edge5" class="edge">
<title>41&#45;&#45;65</title>
<path fill="none" stroke="#000000" d="M143.7146,-288.5708C149.3747,-277.2506 156.7216,-262.5568 162.3657,-251.2687"/>
</g>
<!-- 11 -->
<g id="node3" class="node">
<title>11</title>
<ellipse fill="none" stroke="#000000" cx="27" cy="-162" rx="27" ry="18"/>
<text text-anchor="middle" x="27" y="-157.8" font-family="Times,serif" font-size="14.00" fill="#000000">11</text>
</g>
<!-- 20&#45;&#45;11 -->
<g id="edge2" class="edge">
<title>20&#45;&#45;11</title>
<path fill="none" stroke="#000000" d="M83.7307,-218.7307C71.512,-206.512 54.4602,-189.4602 42.2473,-177.2473"/>
</g>
<!-- 29 -->
<g id="node4" class="node">
<title>29</title>
<ellipse fill="none" stroke="#000000" cx="99" cy="-162" rx="27" ry="18"/>
<text text-anchor="middle" x="99" y="-157.8" font-family="Times,serif" font-size="14.00" fill="#000000">29</text>
</g>
<!-- 20&#45;&#45;29 -->
<g id="edge3" class="edge">
<title>20&#45;&#45;29</title>
<path fill="none" stroke="#000000" d="M99,-215.8314C99,-205 99,-191.2876 99,-180.4133"/>
</g>
<!-- 32 -->
<g id="node5" class="node">
<title>32</title>
<ellipse fill="none" stroke="#000000" cx="99" cy="-90" rx="27" ry="18"/>
<text text-anchor="middle" x="99" y="-85.8" font-family="Times,serif" font-size="14.00" fill="#000000">32</text>
</g>
<!-- 29&#45;&#45;32 -->
<g id="edge4" class="edge">
<title>29&#45;&#45;32</title>
<path fill="none" stroke="#000000" d="M99,-143.8314C99,-133 99,-119.2876 99,-108.4133"/>
</g>
<!-- 50 -->
<g id="node7" class="node">
<title>50</title>
<ellipse fill="none" stroke="#000000" cx="171" cy="-162" rx="27" ry="18"/>
<text text-anchor="middle" x="171" y="-157.8" font-family="Times,serif" font-size="14.00" fill="#000000">50</text>
</g>
<!-- 65&#45;&#45;50 -->
<g id="edge6" class="edge">
<title>65&#45;&#45;50</title>
<path fill="none" stroke="#000000" d="M171,-215.8314C171,-205 171,-191.2876 171,-180.4133"/>
</g>
<!-- 91 -->
<g id="node8" class="node">
<title>91</title>
<ellipse fill="none" stroke="#000000" cx="243" cy="-162" rx="27" ry="18"/>
<text text-anchor="middle" x="243" y="-157.8" font-family="Times,serif" font-size="14.00" fill="#000000">91</text>
</g>
<!-- 65&#45;&#45;91 -->
<g id="edge7" class="edge">
<title>65&#45;&#45;91</title>
<path fill="none" stroke="#000000" d="M186.2693,-218.7307C198.488,-206.512 215.5398,-189.4602 227.7527,-177.2473"/>
</g>
<!-- 72 -->
<g id="node9" class="node">
<title>72</title>
<ellipse fill="none" stroke="#000000" cx="207" cy="-90" rx="27" ry="18"/>
<text text-anchor="middle" x="207" y="-85.8" font-family="Times,serif" font-size="14.00" fill="#000000">72</text>
</g>
<!-- 91&#45;&#45;72 -->
<g id="edge8" class="edge">
<title>91&#45;&#45;72</title>
<path fill="none" stroke="#000000" d="M234.2854,-144.5708C228.6253,-133.2506 221.2784,-118.5568 215.6343,-107.2687"/>
</g>
<!-- 99 -->
<g id="node10" class="node">
<title>99</title>
<ellipse fill="none" stroke="#000000" cx="279" cy="-90" rx="27" ry="18"/>
<text text-anchor="middle" x="279" y="-85.8" font-family="Times,serif" font-size="14.00" fill="#000000">99</text>
</g>
<!-- 91&#45;&#45;99 -->
<g id="edge9" class="edge">
<title>91&#45;&#45;99</title>
<path fill="none" stroke="#000000" d="M251.7146,-144.5708C257.3747,-133.2506 264.7216,-118.5568 270.3657,-107.2687"/>
</g>
<!-- 93 -->
<g id="node11" class="node">
<title>93</title>
<ellipse fill="none" stroke="#000000" cx="243" cy="-18" rx="27" ry="18"/>
<text text-anchor="middle" x="243" y="-13.8" font-family="Times,serif" font-size="14.00" fill="#000000">93</text>
</g>
<!-- 99&#45;&#45;93 -->
<g id="edge10" class="edge">
<title>99&#45;&#45;93</title>
<path fill="none" stroke="#000000" d="M270.2854,-72.5708C264.6253,-61.2506 257.2784,-46.5568 251.6343,-35.2687"/>
</g>
<!-- 105 -->
<g id="node12" class="node">
<title>105</title>
<ellipse fill="none" stroke="#000000" cx="315" cy="-18" rx="27" ry="18"/>
<text text-anchor="middle" x="315" y="-13.8" font-family="Times,serif" font-size="14.00" fill="#000000">105</text>
</g>
<!-- 99&#45;&#45;105 -->
<g id="edge11" class="edge">
<title>99&#45;&#45;105</title>
<path fill="none" stroke="#000000" d="M287.7146,-72.5708C293.3747,-61.2506 300.7216,-46.5568 306.3657,-35.2687"/>
</g>
</g>
</svg>
